<svg width="4" height="16" viewBox="0 0 4 16" fill="none" xmlns="http://www.w3.org/2000/svg">
<path fill-rule="evenodd" clip-rule="evenodd" d="M0.666748 8C0.666748 7.07952 1.41294 6.33333 2.33342 6.33333C3.25389 6.33333 4.00008 7.07952 4.00008 8C4.00008 8.92048 3.25389 9.66667 2.33342 9.66667C1.41294 9.66667 0.666748 8.92048 0.666748 8Z" fill="white"/>
<path fill-rule="evenodd" clip-rule="evenodd" d="M0.666748 2.16667C0.666748 1.24619 1.41294 0.5 2.33342 0.5C3.25389 0.5 4.00008 1.24619 4.00008 2.16667C4.00008 3.08714 3.25389 3.83333 2.33342 3.83333C1.41294 3.83333 0.666748 3.08714 0.666748 2.16667Z" fill="white"/>
<path fill-rule="evenodd" clip-rule="evenodd" d="M0.666748 13.8333C0.666748 12.9129 1.41294 12.1667 2.33342 12.1667C3.25389 12.1667 4.00008 12.9129 4.00008 13.8333C4.00008 14.7538 3.25389 15.5 2.33342 15.5C1.41294 15.5 0.666748 14.7538 0.666748 13.8333Z" fill="white"/>
</svg>
