<svg width="21" height="20" viewBox="0 0 21 20" fill="none" xmlns="http://www.w3.org/2000/svg">
<g clip-path="url(#clip0_3_724)">
<path d="M16.45 6.87492H10.825V6.17179C11.3614 6.03245 11.8365 5.71911 12.1758 5.28085C12.5151 4.84259 12.6994 4.30417 12.7 3.74992C12.7 1.56242 10.6343 0.163199 10.5468 0.104605C10.4441 0.0360809 10.3234 -0.000488281 10.2 -0.000488281C10.0765 -0.000488281 9.95578 0.0360809 9.85308 0.104605C9.76558 0.163199 7.69995 1.56242 7.69995 3.74992C7.70048 4.30417 7.88482 4.84259 8.22412 5.28085C8.56342 5.71911 9.0385 6.03245 9.57495 6.17179V6.87492H3.94995C3.45267 6.87492 2.97576 7.07246 2.62413 7.42409C2.2725 7.77572 2.07495 8.25264 2.07495 8.74992V10.5726C2.07559 11.2544 2.29463 11.9181 2.69995 12.4663V15.6249C2.69995 16.1222 2.8975 16.5991 3.24913 16.9507C3.60076 17.3024 4.07767 17.4999 4.57495 17.4999H15.825C16.3222 17.4999 16.7991 17.3024 17.1508 16.9507C17.5024 16.5991 17.7 16.1222 17.7 15.6249V12.4663C18.1053 11.9181 18.3243 11.2544 18.325 10.5726V8.74992C18.325 8.25264 18.1274 7.77572 17.7758 7.42409C17.4241 7.07246 16.9472 6.87492 16.45 6.87492ZM8.94995 3.74992C8.94995 2.68976 9.7312 1.83898 10.2 1.42257C10.6687 1.83898 11.45 2.68976 11.45 3.74992C11.45 4.08144 11.3183 4.39938 11.0838 4.6338C10.8494 4.86822 10.5315 4.99992 10.2 4.99992C9.86843 4.99992 9.55049 4.86822 9.31607 4.6338C9.08165 4.39938 8.94995 4.08144 8.94995 3.74992ZM17.075 10.5726C17.075 11.6077 16.2578 12.4718 15.2531 12.4991C15.0025 12.5062 14.753 12.463 14.5194 12.372C14.2858 12.281 14.0728 12.1441 13.8931 11.9694C13.7133 11.7946 13.5704 11.5856 13.4728 11.3547C13.3752 11.1238 13.325 10.8756 13.325 10.6249C13.325 10.4592 13.2591 10.3002 13.1419 10.183C13.0247 10.0658 12.8657 9.99992 12.7 9.99992C12.5342 9.99992 12.3752 10.0658 12.258 10.183C12.1408 10.3002 12.075 10.4592 12.075 10.6249C12.075 11.1222 11.8774 11.5991 11.5258 11.9507C11.1741 12.3024 10.6972 12.4999 10.2 12.4999C9.70267 12.4999 9.22576 12.3024 8.87413 11.9507C8.52249 11.5991 8.32495 11.1222 8.32495 10.6249C8.32495 10.4592 8.2591 10.3002 8.14189 10.183C8.02468 10.0658 7.86571 9.99992 7.69995 9.99992C7.53419 9.99992 7.37522 10.0658 7.25801 10.183C7.1408 10.3002 7.07495 10.4592 7.07495 10.6249C7.07505 10.8757 7.02485 11.1239 6.92732 11.3549C6.82979 11.586 6.6869 11.7951 6.50713 11.9699C6.32735 12.1447 6.11434 12.2817 5.88068 12.3727C5.64703 12.4638 5.39749 12.507 5.14683 12.4999C4.14214 12.4718 3.32495 11.6077 3.32495 10.5726V8.74992C3.32495 8.58416 3.3908 8.42519 3.50801 8.30798C3.62522 8.19077 3.78419 8.12492 3.94995 8.12492H16.45C16.6157 8.12492 16.7747 8.19077 16.8919 8.30798C17.0091 8.42519 17.075 8.58416 17.075 8.74992V10.5726Z" fill="#8C8C8C"/>
</g>
<defs>
<clipPath id="clip0_3_724">
<rect width="20" height="20" fill="white" transform="translate(0.199951)"/>
</clipPath>
</defs>
</svg>
