<svg width="21" height="20" viewBox="0 0 21 20" fill="none" xmlns="http://www.w3.org/2000/svg">
<path d="M16.6499 8.12492C16.6499 6.91544 16.2989 5.73195 15.6396 4.71797C14.9803 3.70399 14.0409 2.9031 12.9355 2.41243C11.83 1.92176 10.6059 1.76238 9.4116 1.95364C8.21734 2.14489 7.10422 2.67855 6.20725 3.48991C5.31027 4.30126 4.66799 5.35544 4.35828 6.5246C4.04857 7.69375 4.08475 8.92766 4.46243 10.0767C4.84011 11.2257 5.54307 12.2404 6.48604 12.9978C7.42901 13.7552 8.57148 14.2227 9.7749 14.3437V18.1249C9.7749 18.2907 9.84075 18.4497 9.95796 18.5669C10.0752 18.6841 10.2341 18.7499 10.3999 18.7499C10.5657 18.7499 10.7246 18.6841 10.8418 18.5669C10.9591 18.4497 11.0249 18.2907 11.0249 18.1249V14.3437C12.5658 14.1869 13.9938 13.4643 15.0328 12.3156C16.0718 11.1669 16.648 9.67379 16.6499 8.12492ZM10.3999 13.1249C9.411 13.1249 8.4443 12.8317 7.62205 12.2823C6.79981 11.7329 6.15894 10.952 5.78051 10.0383C5.40207 9.12471 5.30305 8.11938 5.49598 7.14947C5.6889 6.17957 6.16511 5.28865 6.86437 4.58939C7.56363 3.89013 8.45455 3.41392 9.42445 3.221C10.3944 3.02807 11.3997 3.12709 12.3133 3.50553C13.227 3.88397 14.0078 4.52483 14.5573 5.34707C15.1067 6.16932 15.3999 7.13602 15.3999 8.12492C15.3985 9.45056 14.8712 10.7215 13.9338 11.6589C12.9965 12.5962 11.7255 13.1235 10.3999 13.1249Z" fill="#8C8C8C"/>
</svg>
