<svg width="335" height="24" viewBox="0 0 335 24" fill="none" xmlns="http://www.w3.org/2000/svg">
<path d="M100 2.25H91C89.6081 2.25149 88.2736 2.80509 87.2893 3.78933C86.3051 4.77358 85.7515 6.10807 85.75 7.5V16.5C85.7515 17.8919 86.3051 19.2264 87.2893 20.2107C88.2736 21.1949 89.6081 21.7485 91 21.75H100C101.392 21.7485 102.726 21.1949 103.711 20.2107C104.695 19.2264 105.249 17.8919 105.25 16.5V7.5C105.249 6.10807 104.695 4.77358 103.711 3.78933C102.726 2.80509 101.392 2.25149 100 2.25ZM95.5 16.5C94.61 16.5 93.74 16.2361 92.9999 15.7416C92.2599 15.2471 91.6831 14.5443 91.3425 13.7221C91.0019 12.8998 90.9128 11.995 91.0865 11.1221C91.2601 10.2492 91.6887 9.44736 92.318 8.81802C92.9474 8.18868 93.7492 7.7601 94.6221 7.58647C95.495 7.41283 96.3998 7.50195 97.2221 7.84254C98.0443 8.18314 98.7471 8.75991 99.2416 9.49993C99.7361 10.24 100 11.11 100 12C99.9988 13.1931 99.5243 14.337 98.6806 15.1806C97.837 16.0243 96.6931 16.4988 95.5 16.5ZM101.125 7.5C100.902 7.5 100.685 7.43402 100.5 7.3104C100.315 7.18679 100.171 7.01109 100.086 6.80552C100 6.59995 99.9782 6.37375 100.022 6.15552C100.065 5.93729 100.172 5.73684 100.33 5.5795C100.487 5.42217 100.687 5.31502 100.906 5.27162C101.124 5.22821 101.35 5.25049 101.556 5.33564C101.761 5.42078 101.937 5.56498 102.06 5.74998C102.184 5.93499 102.25 6.1525 102.25 6.375C102.25 6.67337 102.131 6.95952 101.92 7.1705C101.71 7.38147 101.423 7.5 101.125 7.5ZM98.5 12C98.5 12.5933 98.3241 13.1734 97.9944 13.6667C97.6648 14.1601 97.1962 14.5446 96.6481 14.7716C96.0999 14.9987 95.4967 15.0581 94.9147 14.9424C94.3328 14.8266 93.7982 14.5409 93.3787 14.1213C92.9591 13.7018 92.6734 13.1672 92.5576 12.5853C92.4419 12.0033 92.5013 11.4001 92.7284 10.8519C92.9554 10.3038 93.3399 9.83524 93.8333 9.50559C94.3266 9.17595 94.9067 9 95.5 9C96.2956 9 97.0587 9.31607 97.6213 9.87868C98.1839 10.4413 98.5 11.2044 98.5 12Z" fill="#1C4A2A"/>
<path d="M178.531 7.28056L175.728 10.0837C175.161 16.6481 169.625 21.7499 163 21.7499C161.639 21.7499 160.517 21.5343 159.664 21.1087C158.977 20.7646 158.696 20.3962 158.626 20.2912C158.563 20.1972 158.522 20.0902 158.507 19.9782C158.491 19.8663 158.501 19.7523 158.536 19.6448C158.571 19.5372 158.629 19.4389 158.707 19.3572C158.785 19.2754 158.881 19.2124 158.987 19.1727C159.011 19.1634 161.259 18.2999 162.687 16.6565C161.895 16.0055 161.204 15.241 160.636 14.3877C159.473 12.6618 158.172 9.66369 158.573 5.18337C158.586 5.04101 158.639 4.90525 158.726 4.79207C158.814 4.67889 158.931 4.59301 159.066 4.54454C159.2 4.49608 159.346 4.48704 159.485 4.51851C159.625 4.54997 159.752 4.62061 159.853 4.72212C159.886 4.75494 162.973 7.82525 166.747 8.82087V8.24994C166.746 7.65124 166.864 7.05831 167.095 6.50606C167.327 5.95381 167.666 5.45341 168.093 5.03431C168.509 4.61968 169.003 4.29241 169.547 4.07182C170.09 3.85123 170.673 3.74178 171.259 3.74994C172.047 3.7577 172.818 3.96899 173.499 4.36325C174.181 4.75752 174.748 5.32135 175.147 5.99994H178C178.148 5.99982 178.294 6.04374 178.417 6.12615C178.54 6.20855 178.637 6.32573 178.694 6.46284C178.75 6.59996 178.765 6.75085 178.736 6.89642C178.707 7.04198 178.636 7.17567 178.531 7.28056Z" fill="#1C4A2A"/>
<path d="M247.75 2.25H231.25C230.852 2.25 230.471 2.40804 230.189 2.68934C229.908 2.97064 229.75 3.35218 229.75 3.75V20.25C229.75 20.6478 229.908 21.0294 230.189 21.3107C230.471 21.592 230.852 21.75 231.25 21.75H247.75C248.148 21.75 248.529 21.592 248.811 21.3107C249.092 21.0294 249.25 20.6478 249.25 20.25V3.75C249.25 3.35218 249.092 2.97064 248.811 2.68934C248.529 2.40804 248.148 2.25 247.75 2.25ZM236.5 16.5C236.5 16.6989 236.421 16.8897 236.28 17.0303C236.14 17.171 235.949 17.25 235.75 17.25C235.551 17.25 235.36 17.171 235.22 17.0303C235.079 16.8897 235 16.6989 235 16.5V10.5C235 10.3011 235.079 10.1103 235.22 9.96967C235.36 9.82902 235.551 9.75 235.75 9.75C235.949 9.75 236.14 9.82902 236.28 9.96967C236.421 10.1103 236.5 10.3011 236.5 10.5V16.5ZM235.75 9C235.527 9 235.31 8.93402 235.125 8.8104C234.94 8.68679 234.796 8.51109 234.711 8.30552C234.625 8.09995 234.603 7.87375 234.647 7.65552C234.69 7.43729 234.797 7.23684 234.955 7.0795C235.112 6.92217 235.312 6.81502 235.531 6.77162C235.749 6.72821 235.975 6.75049 236.181 6.83564C236.386 6.92078 236.562 7.06498 236.685 7.24998C236.809 7.43499 236.875 7.6525 236.875 7.875C236.875 8.17337 236.756 8.45952 236.545 8.6705C236.335 8.88147 236.048 9 235.75 9ZM244.75 16.5C244.75 16.6989 244.671 16.8897 244.53 17.0303C244.39 17.171 244.199 17.25 244 17.25C243.801 17.25 243.61 17.171 243.47 17.0303C243.329 16.8897 243.25 16.6989 243.25 16.5V13.125C243.25 12.6277 243.052 12.1508 242.701 11.7992C242.349 11.4475 241.872 11.25 241.375 11.25C240.878 11.25 240.401 11.4475 240.049 11.7992C239.698 12.1508 239.5 12.6277 239.5 13.125V16.5C239.5 16.6989 239.421 16.8897 239.28 17.0303C239.14 17.171 238.949 17.25 238.75 17.25C238.551 17.25 238.36 17.171 238.22 17.0303C238.079 16.8897 238 16.6989 238 16.5V10.5C238.001 10.3163 238.069 10.1393 238.192 10.0026C238.315 9.86596 238.483 9.7791 238.666 9.75852C238.849 9.73794 239.032 9.78508 239.182 9.891C239.332 9.99691 239.439 10.1542 239.48 10.3331C239.988 9.98894 240.579 9.78947 241.191 9.75611C241.804 9.72276 242.413 9.85679 242.955 10.1438C243.497 10.4308 243.95 10.86 244.266 11.3852C244.583 11.9105 244.75 12.5119 244.75 13.125V16.5Z" fill="#1C4A2A"/>
</svg>
