<svg width="120" height="24" viewBox="0 0 120 24" fill="none" xmlns="http://www.w3.org/2000/svg">
<path d="M16.5 2.25H7.5C6.10807 2.25149 4.77358 2.80509 3.78933 3.78933C2.80509 4.77358 2.25149 6.10807 2.25 7.5V16.5C2.25149 17.8919 2.80509 19.2264 3.78933 20.2107C4.77358 21.1949 6.10807 21.7485 7.5 21.75H16.5C17.8919 21.7485 19.2264 21.1949 20.2107 20.2107C21.1949 19.2264 21.7485 17.8919 21.75 16.5V7.5C21.7485 6.10807 21.1949 4.77358 20.2107 3.78933C19.2264 2.80509 17.8919 2.25149 16.5 2.25ZM12 16.5C11.11 16.5 10.24 16.2361 9.49993 15.7416C8.75991 15.2471 8.18314 14.5443 7.84254 13.7221C7.50195 12.8998 7.41283 11.995 7.58647 11.1221C7.7601 10.2492 8.18868 9.44736 8.81802 8.81802C9.44736 8.18868 10.2492 7.7601 11.1221 7.58647C11.995 7.41283 12.8998 7.50195 13.7221 7.84254C14.5443 8.18314 15.2471 8.75991 15.7416 9.49993C16.2361 10.24 16.5 11.11 16.5 12C16.4988 13.1931 16.0243 14.337 15.1806 15.1806C14.337 16.0243 13.1931 16.4988 12 16.5ZM17.625 7.5C17.4025 7.5 17.185 7.43402 17 7.3104C16.815 7.18679 16.6708 7.01109 16.5856 6.80552C16.5005 6.59995 16.4782 6.37375 16.5216 6.15552C16.565 5.93729 16.6722 5.73684 16.8295 5.5795C16.9868 5.42217 17.1873 5.31502 17.4055 5.27162C17.6238 5.22821 17.85 5.25049 18.0555 5.33564C18.2611 5.42078 18.4368 5.56498 18.5604 5.74998C18.684 5.93499 18.75 6.1525 18.75 6.375C18.75 6.67337 18.6315 6.95952 18.4205 7.1705C18.2095 7.38147 17.9234 7.5 17.625 7.5ZM15 12C15 12.5933 14.8241 13.1734 14.4944 13.6667C14.1648 14.1601 13.6962 14.5446 13.1481 14.7716C12.5999 14.9987 11.9967 15.0581 11.4147 14.9424C10.8328 14.8266 10.2982 14.5409 9.87868 14.1213C9.45912 13.7018 9.1734 13.1672 9.05764 12.5853C8.94189 12.0033 9.0013 11.4001 9.22836 10.8519C9.45542 10.3038 9.83994 9.83524 10.3333 9.50559C10.8266 9.17595 11.4067 9 12 9C12.7956 9 13.5587 9.31607 14.1213 9.87868C14.6839 10.4413 15 11.2044 15 12Z" fill="#1C4A2A"/>
<path d="M71.0307 7.28056L68.2275 10.0837C67.6613 16.6481 62.1254 21.7499 55.5 21.7499C54.1388 21.7499 53.0166 21.5343 52.1644 21.1087C51.4772 20.7646 51.196 20.3962 51.1257 20.2912C51.063 20.1972 51.0223 20.0902 51.0068 19.9782C50.9913 19.8663 51.0012 19.7523 51.0359 19.6448C51.0706 19.5372 51.1292 19.4389 51.2072 19.3572C51.2853 19.2754 51.3808 19.2124 51.4866 19.1727C51.511 19.1634 53.7591 18.2999 55.1869 16.6565C54.3951 16.0055 53.7039 15.241 53.1357 14.3877C51.9732 12.6618 50.6719 9.66369 51.0732 5.18337C51.0859 5.04101 51.139 4.90525 51.2263 4.79207C51.3136 4.67889 51.4314 4.59301 51.5659 4.54454C51.7003 4.49608 51.8459 4.48704 51.9853 4.51851C52.1247 4.54997 52.2522 4.62061 52.3529 4.72212C52.3857 4.75494 55.4729 7.82525 59.2472 8.82087V8.24994C59.2458 7.65124 59.3642 7.05831 59.5954 6.50606C59.8266 5.95381 60.1659 5.45341 60.5935 5.03431C61.0087 4.61968 61.5028 4.29241 62.0465 4.07182C62.5903 3.85123 63.1727 3.74178 63.7594 3.74994C64.5465 3.7577 65.3182 3.96899 65.9995 4.36325C66.6807 4.75752 67.2484 5.32135 67.6472 5.99994H70.5C70.6485 5.99982 70.7936 6.04374 70.917 6.12615C71.0405 6.20855 71.1367 6.32573 71.1935 6.46284C71.2503 6.59996 71.2652 6.75085 71.2362 6.89642C71.2072 7.04198 71.1357 7.17567 71.0307 7.28056Z" fill="#1C4A2A"/>
<path d="M116.25 2.25H99.75C99.3522 2.25 98.9706 2.40804 98.6893 2.68934C98.408 2.97064 98.25 3.35218 98.25 3.75V20.25C98.25 20.6478 98.408 21.0294 98.6893 21.3107C98.9706 21.592 99.3522 21.75 99.75 21.75H116.25C116.648 21.75 117.029 21.592 117.311 21.3107C117.592 21.0294 117.75 20.6478 117.75 20.25V3.75C117.75 3.35218 117.592 2.97064 117.311 2.68934C117.029 2.40804 116.648 2.25 116.25 2.25ZM105 16.5C105 16.6989 104.921 16.8897 104.78 17.0303C104.64 17.171 104.449 17.25 104.25 17.25C104.051 17.25 103.86 17.171 103.72 17.0303C103.579 16.8897 103.5 16.6989 103.5 16.5V10.5C103.5 10.3011 103.579 10.1103 103.72 9.96967C103.86 9.82902 104.051 9.75 104.25 9.75C104.449 9.75 104.64 9.82902 104.78 9.96967C104.921 10.1103 105 10.3011 105 10.5V16.5ZM104.25 9C104.027 9 103.81 8.93402 103.625 8.8104C103.44 8.68679 103.296 8.51109 103.211 8.30552C103.125 8.09995 103.103 7.87375 103.147 7.65552C103.19 7.43729 103.297 7.23684 103.455 7.0795C103.612 6.92217 103.812 6.81502 104.031 6.77162C104.249 6.72821 104.475 6.75049 104.681 6.83564C104.886 6.92078 105.062 7.06498 105.185 7.24998C105.309 7.43499 105.375 7.6525 105.375 7.875C105.375 8.17337 105.256 8.45952 105.045 8.6705C104.835 8.88147 104.548 9 104.25 9ZM113.25 16.5C113.25 16.6989 113.171 16.8897 113.03 17.0303C112.89 17.171 112.699 17.25 112.5 17.25C112.301 17.25 112.11 17.171 111.97 17.0303C111.829 16.8897 111.75 16.6989 111.75 16.5V13.125C111.75 12.6277 111.552 12.1508 111.201 11.7992C110.849 11.4475 110.372 11.25 109.875 11.25C109.378 11.25 108.901 11.4475 108.549 11.7992C108.198 12.1508 108 12.6277 108 13.125V16.5C108 16.6989 107.921 16.8897 107.78 17.0303C107.64 17.171 107.449 17.25 107.25 17.25C107.051 17.25 106.86 17.171 106.72 17.0303C106.579 16.8897 106.5 16.6989 106.5 16.5V10.5C106.501 10.3163 106.569 10.1393 106.692 10.0026C106.815 9.86596 106.983 9.7791 107.166 9.75852C107.349 9.73794 107.532 9.78508 107.682 9.891C107.832 9.99691 107.939 10.1542 107.98 10.3331C108.488 9.98894 109.079 9.78947 109.691 9.75611C110.304 9.72276 110.913 9.85679 111.455 10.1438C111.997 10.4308 112.45 10.86 112.766 11.3852C113.083 11.9105 113.25 12.5119 113.25 13.125V16.5Z" fill="#1C4A2A"/>
</svg>
