<svg width="56" height="56" viewBox="0 0 56 56" fill="none" xmlns="http://www.w3.org/2000/svg">
<rect width="56" height="56" fill="#1E1E1E"/>
<g clip-path="url(#clip0_205_403)">
<rect width="1440" height="960" transform="translate(-756 -358)" fill="#F4F6FA"/>
<g filter="url(#filter0_d_205_403)">
<rect x="-20" y="-134" width="564" height="92" rx="24" fill="white"/>
</g>
<g filter="url(#filter1_d_205_403)">
<rect x="-20" y="-18" width="564" height="92" rx="24" fill="white"/>
<path d="M0 8C0 3.58172 3.58172 0 8 0H48C52.4183 0 56 3.58172 56 8V48C56 52.4183 52.4183 56 48 56H8C3.58172 56 0 52.4183 0 48V8Z" fill="#F4F6FA"/>
<path d="M20.856 40C20.6693 40 20.5107 39.9347 20.38 39.804C20.2493 39.6733 20.184 39.5147 20.184 39.328V21.1C20.184 20.8947 20.2493 20.7267 20.38 20.596C20.5107 20.4653 20.6693 20.4 20.856 20.4H28.976C30.488 20.4 31.72 20.6333 32.672 21.1C33.624 21.548 34.324 22.1733 34.772 22.976C35.2387 23.7787 35.472 24.712 35.472 25.776C35.472 26.4853 35.3413 27.1107 35.08 27.652C34.8373 28.1747 34.5293 28.604 34.156 28.94C33.8013 29.276 33.4467 29.5373 33.092 29.724C33.82 30.06 34.464 30.62 35.024 31.404C35.584 32.188 35.864 33.1213 35.864 34.204C35.864 35.324 35.612 36.3227 35.108 37.2C34.604 38.0773 33.8573 38.768 32.868 39.272C31.8787 39.7573 30.656 40 29.2 40H20.856ZM24.076 37.032H28.752C29.76 37.032 30.5253 36.7613 31.048 36.22C31.5707 35.66 31.832 34.988 31.832 34.204C31.832 33.3827 31.5613 32.7013 31.02 32.16C30.4973 31.6187 29.7413 31.348 28.752 31.348H24.076V37.032ZM24.076 28.436H28.472C29.4613 28.436 30.1987 28.2027 30.684 27.736C31.188 27.2507 31.44 26.6253 31.44 25.86C31.44 25.076 31.188 24.4693 30.684 24.04C30.1987 23.592 29.4613 23.368 28.472 23.368H24.076V28.436Z" fill="#626C7F"/>
</g>
</g>
<defs>
<filter id="filter0_d_205_403" x="-60" y="-158" width="644" height="172" filterUnits="userSpaceOnUse" color-interpolation-filters="sRGB">
<feFlood flood-opacity="0" result="BackgroundImageFix"/>
<feColorMatrix in="SourceAlpha" type="matrix" values="0 0 0 0 0 0 0 0 0 0 0 0 0 0 0 0 0 0 127 0" result="hardAlpha"/>
<feOffset dy="16"/>
<feGaussianBlur stdDeviation="20"/>
<feComposite in2="hardAlpha" operator="out"/>
<feColorMatrix type="matrix" values="0 0 0 0 0.562431 0 0 0 0 0.627732 0 0 0 0 0.758333 0 0 0 0.14 0"/>
<feBlend mode="normal" in2="BackgroundImageFix" result="effect1_dropShadow_205_403"/>
<feBlend mode="normal" in="SourceGraphic" in2="effect1_dropShadow_205_403" result="shape"/>
</filter>
<filter id="filter1_d_205_403" x="-60" y="-42" width="644" height="172" filterUnits="userSpaceOnUse" color-interpolation-filters="sRGB">
<feFlood flood-opacity="0" result="BackgroundImageFix"/>
<feColorMatrix in="SourceAlpha" type="matrix" values="0 0 0 0 0 0 0 0 0 0 0 0 0 0 0 0 0 0 127 0" result="hardAlpha"/>
<feOffset dy="16"/>
<feGaussianBlur stdDeviation="20"/>
<feComposite in2="hardAlpha" operator="out"/>
<feColorMatrix type="matrix" values="0 0 0 0 0.562431 0 0 0 0 0.627732 0 0 0 0 0.758333 0 0 0 0.14 0"/>
<feBlend mode="normal" in2="BackgroundImageFix" result="effect1_dropShadow_205_403"/>
<feBlend mode="normal" in="SourceGraphic" in2="effect1_dropShadow_205_403" result="shape"/>
</filter>
<clipPath id="clip0_205_403">
<rect width="1440" height="960" fill="white" transform="translate(-756 -358)"/>
</clipPath>
</defs>
</svg>
